<?xml version="1.0" encoding="UTF-8" standalone="no"?> <svg width="24" height="24" viewBox="0 0 24 24" fill="none" xmlns="http://www.w3.org/2000/svg">
<path fill-rule="evenodd" clip-rule="evenodd" d="M12.0001 0C12.5523 0 13.0001 0.447715 13.0001 1V2.07089C16.3924 2.55612 19.0001 5.47353 19.0001 9V10.1036C19.0001 11.7412 19.5742 13.3269 20.6225 14.5849L21.0346 15.0794C22.663 17.0334 21.2735 20 18.73 20H16.0001C16.0001 22.2091 14.2092 24 12.0001 24C9.79092 24 8.00006 22.2091 8.00006 20H5.27014C2.72663 20 1.33715 17.0334 2.96547 15.0794L3.37761 14.5849C4.42594 13.3269 5.00006 11.7412 5.00006 10.1036V9C5.00006 5.47353 7.60776 2.55612 11.0001 2.07089V1C11.0001 0.447715 11.4478 0 12.0001 0ZM10.0001 20C10.0001 21.1046 10.8955 22 12.0001 22C13.1046 22 14.0001 21.1046 14.0001 20H10.0001ZM5.27014 18C4.4223 18 3.95915 17.0111 4.50192 16.3598L4.91405 15.8653C6.26191 14.2478 7.00006 12.209 7.00006 10.1036V9C7.00006 6.23858 9.23863 4 12.0001 4C14.7615 4 17.0001 6.23858 17.0001 9V10.1036C17.0001 12.209 17.7382 14.2478 19.0861 15.8653L19.4982 16.3598C20.041 17.0111 19.5778 18 18.73 18H5.27014Z" fill="#000000"/>
</svg>
